<svg xmlns="http://www.w3.org/2000/svg" width="24" height="24"><path fill="currentColor" stroke="currentColor" stroke-width=".8" d="M5.173 3A.224.224 0 005 3.242v17.2a.243.243 0 00.1.2.172.172 0 00.2 0 .243.243 0 00.1-.2v-3.018h1.389a1.7 1.7 0 001.567 1.627 1.74 1.74 0 001.579-1.86 1.74 1.74 0 00-1.579-1.86 1.7 1.7 0 00-1.567 1.627H5.395v-4.882h5.131a.194.194 0 00.174-.115.269.269 0 000-.234.194.194 0 00-.173-.115H5.395V6.729h1.394a1.7 1.7 0 001.566 1.628A1.74 1.74 0 009.934 6.5a1.74 1.74 0 00-1.579-1.86 1.7 1.7 0 00-1.566 1.624H5.395V3.242a.254.254 0 00-.064-.181A.179.179 0 005.173 3zm14.6 0a.224.224 0 00-.173.24v3.024h-5.126a.168.168 0 00-.037 0 .226.226 0 00-.179.254.21.21 0 00.216.211h5.131v4.882h-1.394a1.7 1.7 0 00-1.567-1.627 1.74 1.74 0 00-1.579 1.86 1.74 1.74 0 001.579 1.86 1.7 1.7 0 001.567-1.627h1.394v4.882h-5.131a.168.168 0 00-.037 0 .226.226 0 00-.179.254.21.21 0 00.216.211h5.131v3.022a.243.243 0 00.1.2.172.172 0 00.2 0 .243.243 0 00.1-.2V3.242a.254.254 0 00-.064-.18.179.179 0 00-.163-.062zM12.3 4.637A1.74 1.74 0 0010.724 6.5 1.74 1.74 0 0012.3 8.357 1.74 1.74 0 0013.882 6.5 1.74 1.74 0 0012.3 4.637zM8.355 5.1A1.3 1.3 0 019.54 6.5a1.3 1.3 0 01-1.185 1.392A1.3 1.3 0 017.171 6.5a1.3 1.3 0 011.184-1.4zm3.945 0a1.3 1.3 0 011.187 1.4A1.3 1.3 0 0112.3 7.892 1.3 1.3 0 0111.118 6.5 1.3 1.3 0 0112.3 5.1zm.4 4.884a1.74 1.74 0 00-1.579 1.86A1.74 1.74 0 0012.7 13.7a1.74 1.74 0 001.579-1.86A1.74 1.74 0 0012.7 9.984zm0 .465a1.3 1.3 0 011.182 1.395 1.3 1.3 0 01-1.182 1.395 1.3 1.3 0 01-1.187-1.395 1.3 1.3 0 011.187-1.395zm3.947 0a1.3 1.3 0 011.184 1.395 1.3 1.3 0 01-1.184 1.395 1.3 1.3 0 01-1.187-1.395 1.3 1.3 0 011.185-1.395zM12.3 15.331a1.74 1.74 0 00-1.579 1.86 1.74 1.74 0 001.579 1.86 1.74 1.74 0 001.579-1.86 1.74 1.74 0 00-1.579-1.86zm-3.945.469a1.3 1.3 0 011.185 1.391 1.3 1.3 0 01-1.184 1.395 1.3 1.3 0 01-1.184-1.395A1.3 1.3 0 018.355 15.8zm3.947 0a1.3 1.3 0 011.184 1.395 1.3 1.3 0 01-1.186 1.391 1.3 1.3 0 01-1.184-1.395A1.3 1.3 0 0112.3 15.8z"/></svg>