<svg xmlns="http://www.w3.org/2000/svg" width="24" height="24"><g data-name="Group 1832"><path fill="none" stroke="currentColor" d="M14.257 9.333A1.333 1.333 0 1115.595 8a1.336 1.336 0 01-1.338 1.333m-4.457.889a1.333 1.333 0 111.335-1.333A1.336 1.336 0 019.8 10.222m-1.786 4.445a1.333 1.333 0 111.337-1.334 1.336 1.336 0 01-1.338 1.333M12.027 4a8 8 0 100 16c.269 0 .536-.014.8-.04h.033a7.919 7.919 0 002.528-.7 1.992 1.992 0 00.949-.852 1.136 1.136 0 00.045-.721c-.013-.047-.018-.1-.035-.147 0-.013-.012-.039-.012-.039a1.9 1.9 0 00-1.631-1.05 1.778 1.778 0 110-3.556h3.568A1.7 1.7 0 0020 11.148v-.052A8.017 8.017 0 0012.027 4" data-name="Path 489"/></g></svg>