<svg xmlns="http://www.w3.org/2000/svg" width="24" height="24"><path fill="currentColor" fill-rule="evenodd" d="M11.746 4.629a.767.767 0 00-.736 0L4.535 8.161l6.475 3.532a.767.767 0 00.736 0l6.475-3.532zm-1.471-1.347a2.3 2.3 0 012.207 0l6.474 3.531a1.536 1.536 0 010 2.7l-1.047.571 1.047.571a1.536 1.536 0 010 2.7l-1.047.571 1.047.571a1.536 1.536 0 010 2.7l-6.475 3.521a2.3 2.3 0 01-2.207 0L3.8 17.187a1.536 1.536 0 010-2.7l1.047-.571-1.047-.568a1.536 1.536 0 010-2.7l1.048-.568L3.8 9.509a1.536 1.536 0 010-2.7zm-3.824 7.673L4.535 12l6.475 3.532a.767.767 0 00.736 0L18.221 12 16.3 10.955l-3.819 2.085a2.3 2.3 0 01-2.207 0zm0 3.839l-1.916 1.045 6.475 3.532a.767.767 0 00.736 0l6.475-3.532-1.921-1.045-3.819 2.085a2.3 2.3 0 01-2.207 0l-3.823-2.085z"/></svg>