<svg xmlns="http://www.w3.org/2000/svg" width="24" height="24"><g data-name="Group 1883"><g data-name="Group 307"><g data-name="Group 306"><g data-name="Group 305"><path fill="currentColor" fill-rule="evenodd" d="M16.707 8.315a.482.482 0 000-.68l-.495-.495a.481.481 0 00-.68 0l-3.266 3.27a.481.481 0 01-.68 0L8.317 7.141a.482.482 0 00-.68 0l-.495.495a.481.481 0 000 .68l3.269 3.269a.481.481 0 010 .68l-3.269 3.269a.482.482 0 000 .68l.495.495a.481.481 0 00.68 0l3.269-3.269a.481.481 0 01.68 0l3.269 3.269a.482.482 0 00.68 0l.495-.495a.481.481 0 000-.68l-3.272-3.267a.481.481 0 010-.68z" data-name="Path 27"/></g></g></g></g></svg>