<svg xmlns="http://www.w3.org/2000/svg" width="24" height="24"><path fill="currentColor" stroke="currentColor" stroke-width=".4" d="M12.451 8.9v7.366a.283.283 0 11-.567 0V8.9a.283.283 0 11.567 0zm2.267 7.366V8.9a.283.283 0 10-.567 0v7.366a.283.283 0 10.567 0zM9.618 8.9v7.366a.283.283 0 10.567 0V8.9a.283.283 0 10-.567 0zm7.933-1.7h-.567v9.916a1.4 1.4 0 01-1.417 1.417h-6.8a1.4 1.4 0 01-1.417-1.417V7.2h-.567a.283.283 0 110-.567h3.123v-.567a.568.568 0 01.562-.566h3.4a.568.568 0 01.567.567v.567h3.116a.283.283 0 110 .566zm-7.083-.567h3.4v-.567h-3.4zm5.95.567h-8.5v9.916a.835.835 0 00.85.85h6.8a.835.835 0 00.85-.85z" data-name="Path 492"/></svg>