<svg xmlns="http://www.w3.org/2000/svg" width="24" height="24"><defs><style>.cls-3{fill:currentColor;stroke:currentColor;stroke-width:.3px}</style></defs><g id="disconnect" transform="translate(-390 -229)"><g id="Group_1901" data-name="Group 1901" transform="translate(-408 -365)"><g id="Group_420" data-name="Group 420" transform="translate(137 -58)"><path id="Path_50" d="M3.51 5.019a1.512 1.512 0 001.48-1.207h2.143a.3.3 0 01.3.3v2.115h-.904a.3.3 0 100 .6h2.416a.3.3 0 100-.6h-.906V4.114a.907.907 0 00-.906-.906H4.99a1.51 1.51 0 10-1.48 1.811zm0-2.416a.906.906 0 11-.91.907.906.906 0 01.91-.91z" class="cls-3" data-name="Path 50" transform="translate(665.197 656.197)"/><path id="Path_51" d="M14.737 14.812a1.512 1.512 0 00-1.48 1.208h-2.143a.3.3 0 01-.3-.3V13.6h.906a.3.3 0 000-.6H9.3a.3.3 0 000 .6h.906v2.114a.907.907 0 00.906.906h2.144a1.51 1.51 0 101.48-1.812zm0 2.416a.906.906 0 11.906-.906.906.906 0 01-.906.906z" class="cls-3" data-name="Path 51" transform="translate(662.425 651.841)"/></g></g></g></svg>