<svg xmlns="http://www.w3.org/2000/svg" width="24" height="24"><g data-name="Group 1881"><path fill="currentColor" stroke="currentColor" stroke-width=".5" d="M12.018 4.801a5.956 5.956 0 00-5.906 4.981 4.887 4.887 0 00.786 9.712h10.908a4.221 4.221 0 00.181-8.438 5.951 5.951 0 00-5.969-6.254zm0 .891a5.112 5.112 0 015.078 5.732.445.445 0 00.445.5h.264a3.339 3.339 0 110 6.678H6.9a4.009 4.009 0 01-.369-8 .445.445 0 00.4-.39 5.1 5.1 0 015.085-4.522zm0 4.452a.445.445 0 00-.445.445v4.786l-1.7-1.551a.466.466 0 00-.633.028.458.458 0 00.035.633l2.449 2.226a.483.483 0 00.3.111.391.391 0 00.3-.111l2.449-2.226a.452.452 0 00.035-.633.474.474 0 00-.633-.028l-1.7 1.551v-4.786a.445.445 0 00-.457-.445z" data-name="Path 55"/></g></svg>