<svg xmlns="http://www.w3.org/2000/svg" width="24" height="24"><defs><style>.cls-2{fill:currentColor;stroke:currentColor;stroke-width:.5px}</style></defs><g id="duplicate" transform="translate(20446 22318)"><g id="duplicate-2" data-name="duplicate" transform="translate(-20440 -22312)"><path id="Path_69" d="M12.488 2.5H6.21A1.309 1.309 0 004.9 3.806V5H3.7a1.309 1.309 0 00-1.3 1.31v6.278a1.309 1.309 0 001.306 1.306h6.278a1.309 1.309 0 001.306-1.306v-1.2h1.2a1.309 1.309 0 001.306-1.306V3.806A1.309 1.309 0 0012.488 2.5zm-1.941 10.076a.562.562 0 01-.563.563H3.718a.562.562 0 01-.563-.563V6.3a.562.562 0 01.563-.563H10a.562.562 0 01.563.563v6.278zm2.5-2.492a.562.562 0 01-.563.563h-1.2V6.3a1.309 1.309 0 00-1.3-1.308H5.647v-1.2a.562.562 0 01.563-.563h6.278a.562.562 0 01.563.563z" class="cls-2" data-name="Path 69" transform="translate(-2.4 -2.5)"/><path id="Path_70" d="M24.313 42.865H22.72v-1.594a.371.371 0 10-.743 0v1.593h-1.606a.371.371 0 100 .743h1.593V45.2a.371.371 0 00.743 0v-1.592h1.605a.371.371 0 000-.743z" class="cls-2" data-name="Path 70" transform="translate(-17.891 -36.299)"/></g></g></svg>