<svg xmlns="http://www.w3.org/2000/svg" width="24" height="24"><defs><style>.cls-2{fill:currentColor}</style></defs><g id="equipment" transform="translate(-190 -165)"><g id="Group_1890" data-name="Group 1890" transform="translate(12853.549 -15105)"><g id="Page-1" transform="translate(-12659.549 15274)"><g id="Allocation_Networks-Active-Copy-3"><g id="Group"><path id="Path" d="M6.942 2.77a.654.654 0 00.692-.692.654.654 0 01.692-.692H10.4a.654.654 0 00.7-.694.654.654 0 00-.7-.692H8.327A2.04 2.04 0 006.25 2.077a.654.654 0 00.692.692" class="cls-2" transform="translate(-2.97)"/><path id="Shape" d="M15.333 11.043h-2V7.065A.628.628 0 0014 6.4V4.413a.628.628 0 00-.667-.663H8a.628.628 0 00-.667.663V6.4A.628.628 0 008 7.065v3.978H6V6.4a.628.628 0 00-.667-.663H2.667A.628.628 0 002 6.4v4.641H.667a.628.628 0 00-.667.665v5.3a.628.628 0 00.667.663h14.666A.628.628 0 0016 17.01v-5.3a.628.628 0 00-.667-.667zm-12-3.978h1.334v3.978H3.333zM6 15.021H3.333a.663.663 0 110-1.326H6a.663.663 0 110 1.326zm6-3.315v4.641H9.333V7.065H12zm2.667 4.641h-1.334v-3.978h1.333z" class="cls-2" transform="translate(0 -1.673)"/></g></g></g></g></g></svg>