<svg xmlns="http://www.w3.org/2000/svg" width="24" height="24"><path fill="none" d="M3 4h17v17H3z"/><path fill="currentColor" d="M19.405 14.754h-2.59v-2.371a.6.6 0 00-1.2 0v2.371h-2.453a.549.549 0 100 1.094h2.458V18.1a.6.6 0 001.2 0v-2.251h2.59a.549.549 0 100-1.094zm-.6-6.809H11.12l-.42-1.184A1.187 1.187 0 009.565 6H4.2A1.148 1.148 0 003 7.094v10.457a1.148 1.148 0 001.2 1.094h7.767a.549.549 0 100-1.094H4.2V9.04h14.608v2.249a.6.6 0 001.2 0V9.04a1.148 1.148 0 00-1.2-1.095zm-14.605 0v-.851h5.37l.3.851z"/></svg>