<svg xmlns="http://www.w3.org/2000/svg" width="24" height="24"><defs><style>.cls-2{fill:currentColor;stroke:currentColor;stroke-width:.5px}</style></defs><g id="explore" transform="translate(-510 -285)"><g id="explorenetwork" transform="translate(516 291)"><path id="Path_120" d="M398.03-564.7h-2.455a1.072 1.072 0 00-1.074 1.074v2.456a1.072 1.072 0 001.074 1.074h2.455a1.072 1.072 0 001.074-1.074v-2.456a1.072 1.072 0 00-1.074-1.074zm.5 3.491a.467.467 0 01-.46.46h-2.455a.466.466 0 01-.46-.46v-2.455a.467.467 0 01.46-.46h2.455a.467.467 0 01.46.46z" class="cls-2" transform="translate(-394.5 564.699)"/><path id="Path_121" d="M417.03-564.7h-2.455a1.072 1.072 0 00-1.074 1.074v2.456a1.072 1.072 0 001.074 1.074h2.455a1.072 1.072 0 001.074-1.074v-2.456a1.1 1.1 0 00-1.074-1.074zm.46 3.491a.467.467 0 01-.46.46h-2.455a.467.467 0 01-.46-.46v-2.455a.467.467 0 01.46-.46h2.455a.467.467 0 01.46.46z" class="cls-2" transform="translate(-406.21 564.699)"/><path id="Path_122" d="M398.03-547.1h-2.455a1.072 1.072 0 00-1.074 1.074v2.455a1.072 1.072 0 001.074 1.074h2.455a1.072 1.072 0 001.074-1.074v-2.455a1.072 1.072 0 00-1.074-1.074zm.5 3.491a.467.467 0 01-.46.46h-2.455a.466.466 0 01-.46-.46v-2.455a.467.467 0 01.46-.46h2.455a.467.467 0 01.46.46z" class="cls-2" transform="translate(-394.5 554.461)"/><path id="Path_123" d="M417.03-547.1h-2.455a1.072 1.072 0 00-1.074 1.074v2.455a1.072 1.072 0 001.074 1.074h2.455a1.072 1.072 0 001.074-1.074v-2.455a1.1 1.1 0 00-1.074-1.074zm.46 3.491a.467.467 0 01-.46.46h-2.455a.467.467 0 01-.46-.46v-2.455a.467.467 0 01.46-.46h2.455a.467.467 0 01.46.46z" class="cls-2" transform="translate(-406.21 554.461)"/></g></g></svg>