<svg xmlns="http://www.w3.org/2000/svg" width="24" height="24"><g data-name="Group 301"><path fill="currentColor" stroke="currentColor" stroke-width=".2" d="M2.442 2.003A.487.487 0 002 2.49v2.437a.487.487 0 00.487.487h.731v12.189h-.777a.487.487 0 00-.442.487v2.437a.487.487 0 00.487.487h2.437a.487.487 0 00.487-.487v-.734h10.733a.487.487 0 100-.975H5.412v-.731a.487.487 0 00-.487-.487h-.731V5.413h.731a.487.487 0 00.487-.487v-.731h10.731a.487.487 0 100-.975H5.412v-.731a.487.487 0 00-.487-.486H2.442zm15.6 0a.487.487 0 00-.442.487v2.437a.487.487 0 00.487.487h.731v10.662a.487.487 0 10.975 0V5.413h.731a.487.487 0 00.487-.487V2.489a.487.487 0 00-.489-.486h-2.483zm-15.065.975h1.462V4.44H2.975zm15.6 0h1.462V4.44h-1.466zM9.56 9.071a.462.462 0 00-.487.487v3.9a.487.487 0 00.487.487h3.9a.487.487 0 00.487-.487v-3.9a.487.487 0 00-.487-.487zm.487.975h2.925v2.925h-2.929zm8 7.555a.487.487 0 00-.442.487v2.437a.487.487 0 00.487.487h2.437a.487.487 0 00.487-.487v-2.438a.487.487 0 00-.487-.487h-2.49zm-15.065.975h1.462v1.462H2.975zm15.6 0h1.462v1.462h-1.471z" data-name="Path 26"/></g></svg>