<svg xmlns="http://www.w3.org/2000/svg" width="24" height="24"><defs><style>.cls-3{fill:currentColor}</style></defs><g id="field" transform="translate(20082 20086)"><g id="Group_1909" transform="translate(56.999 -85.001)"><path id="Path_496" d="M21.624 68.29v-1.624H20v3.247h3.247V68.29z" class="cls-3" transform="translate(-20154 -20051.303)"/><path id="Rectangle_1600" d="M0 0h3.247v1.624H0z" class="cls-3" transform="translate(-20128.318 -19996)"/><path id="Rectangle_1601" d="M0 0h3.247v1.624H0z" class="cls-3" transform="translate(-20128.318 -19983.012)"/><path id="Rectangle_1602" d="M0 0h1.624v3.247H0z" class="cls-3" transform="translate(-20134 -19990.318)"/><path id="Rectangle_1603" d="M0 0h1.624v3.247H0z" class="cls-3" transform="translate(-20121.012 -19990.318)"/><path id="Path_497" d="M23.247 20H20v3.247h1.624v-1.623h1.623z" class="cls-3" transform="translate(-20154 -20016)"/><path id="Path_498" d="M68.29 66.666v1.624h-1.623v1.624h3.247v-3.248z" class="cls-3" transform="translate(-20189.303 -20051.303)"/><path id="Path_499" d="M66.667 20v1.624h1.623v1.623h1.624V20z" class="cls-3" transform="translate(-20189.303 -20016)"/></g></g></svg>