<svg xmlns="http://www.w3.org/2000/svg" width="24" height="24"><defs><style>.cls-2{fill:currentColor}</style></defs><g id="first" transform="translate(-230 -111)"><g id="Group_1886" data-name="Group 1886" transform="translate(224.711 109)"><g id="Group_617" data-name="Group 617" transform="translate(11.289 7)"><path id="Path_68" d="M110.694 55.5c.753-.695-.347-1.8-1.1-1.1l-5.733 5.733a.805.805 0 000 1.1l5.733 5.733a.778.778 0 101.1-1.1l-5.212-5.154z" class="cls-2" data-name="Path 68" transform="translate(-103.643 -54.175)"/></g><g id="Group_620" data-name="Group 620" transform="translate(15.754 7)"><path id="Path_68-2" d="M110.694 55.5c.753-.695-.347-1.8-1.1-1.1l-5.733 5.733a.805.805 0 000 1.1l5.733 5.733a.778.778 0 101.1-1.1l-5.212-5.154z" class="cls-2" data-name="Path 68" transform="translate(-103.643 -54.175)"/></g></g></g></svg>