<svg xmlns="http://www.w3.org/2000/svg" width="24" height="24"><g data-name="Group 1679"><path fill="currentColor" d="M11.162 7.999a2.1 2.1 0 00-2.05 2v.554h-.19a.903.903 0 100 1.807h.19c-.007.834.031 1.737-.026 2.531a.126.126 0 01-.013.043.901.901 0 00.1 1.8 1.717 1.717 0 001.214-.524 2.7 2.7 0 00.534-1.84v-2.014h.19a.903.903 0 000-1.807h-.19v-.554c.01-.186.1-.193.19-.193a.902.902 0 10.051-1.803zm1.418 4.476a.9.9 0 00-.63 1.551l.584.583-.584.584a.903.903 0 101.277 1.277l.586-.584.585.584a.903.903 0 101.277-1.277l-.585-.584.585-.583a.904.904 0 10-1.277-1.28l-.585.585-.585-.585a.9.9 0 00-.647-.271z" data-name="Path 469"/></g></svg>