<svg xmlns="http://www.w3.org/2000/svg" width="24" height="24"><g data-name="Group 1409"><g data-name="Group 1405"><g data-name="Group 1404"><g data-name="Group 1403"><path fill="currentColor" d="M18.729 15.193a2.04 2.04 0 00-.884.2l-1.6-2.167.224.033a.383.383 0 10.113-.757l-.982-.148-1.766-2.389a2.868 2.868 0 10-3.946-.04l-1.8 2.429-.982.148a.383.383 0 10.113.757l.224-.033-1.585 2.145a2 2 0 00-.83-.178 2.029 2.029 0 101.457.617l1.572-2.126.035.222a.381.381 0 00.378.326.277.277 0 00.058 0 .382.382 0 00.322-.435l-.148-.98 1.8-2.433a2.806 2.806 0 001 .328v2.034l-.732.732a.384.384 0 00.543.543l.19-.19v1.4a2.029 2.029 0 10.767 0v-1.4l.19.19a.384.384 0 10.543-.543l-.732-.731v-2.039a2.805 2.805 0 00.941-.3l1.779 2.4-.148.98a.382.382 0 00.322.435.29.29 0 00.058 0 .383.383 0 00.378-.326l.033-.222 1.607 2.17a2.026 2.026 0 101.5-.661zm-13.7 3.1a1.069 1.069 0 11.594-1.96 1.069 1.069 0 01-.6 1.955zm7.921-1.068a1.07 1.07 0 11-1.07-1.07 1.07 1.07 0 011.068 1.066zM11.88 9.78a1.909 1.909 0 111.91-1.91 1.912 1.912 0 01-1.912 1.906zm6.851 8.513a1.069 1.069 0 111.07-1.072 1.07 1.07 0 01-1.072 1.068z" data-name="Path 378"/></g></g></g></g></svg>