<svg xmlns="http://www.w3.org/2000/svg" width="24" height="24"><path fill="none" d="M4 4h16.5v16.5H4z"/><path fill="currentColor" d="M16.375 17.407v-3.094h.9v-2.224h-4.444v5.317h.967l-1.548 2.063-1.547-2.062h.967v-7.09H7.222v2.074a1.545 1.545 0 01.814.891 1.561 1.561 0 01.089.516 1.547 1.547 0 01-1.547 1.546 1.547 1.547 0 01-1.547-1.547 1.545 1.545 0 011.031-1.458v-2.022a1.159 1.159 0 011.16-1.16h4.448V8.013a1.546 1.546 0 01-.967-1.434 1.547 1.547 0 011.547-1.547 1.547 1.547 0 011.547 1.547 1.546 1.546 0 01-.966 1.433v2.917h4.447a1.159 1.159 0 011.16 1.16v2.224h1.031v3.094zm-9.8-4a.386.386 0 00-.387.387.386.386 0 00.387.387.386.386 0 00.387-.387.386.386 0 00-.384-.384zm11.733 2.062h-.777v.773h.773z"/></svg>