<svg xmlns="http://www.w3.org/2000/svg" width="24" height="24"><g data-name="Group 1900"><path fill="none" d="M5 5h14v14H5z"/><path fill="currentColor" d="M16.139 5H7.703a.973.973 0 00-.973.973v11.9a.973.973 0 00.973.973h8.436a.973.973 0 00.973-.973v-11.9A.973.973 0 0016.139 5zm0 12.749H7.703V14.45a.014.014 0 00.014.014h8.413a.014.014 0 00.014-.014zm0-4.245a.014.014 0 00-.009-.014H7.717a.014.014 0 00-.014.01v-3.3a.014.014 0 00.014.014h8.413a.014.014 0 00.009-.014zm0-4.245a.014.014 0 00-.009-.014H7.717a.014.014 0 00-.014.014V5.973h8.436zM8.853 16.1a.487.487 0 10.487-.487.487.487 0 00-.487.487zm0-4.245a.487.487 0 10.487-.487.487.487 0 00-.487.487zm0-4.245a.487.487 0 10.487-.487.487.487 0 00-.487.486z"/></g></svg>