<svg xmlns="http://www.w3.org/2000/svg" width="24" height="24"><path fill="currentColor" fill-rule="evenodd" d="M12 4a8 8 0 11-8 8 8 8 0 018-8zm.631 2.144l-.017.492a.608.608 0 01-.606.587H12a.609.609 0 01-.61-.588l-.017-.488a5.328 5.328 0 00-3.066 1.266l.337.359a.6.6 0 01-.013.84.614.614 0 01-.858.012L7.4 8.271a5.532 5.532 0 00-1.255 3.1l.48.017a.618.618 0 01.6.616.609.609 0 01-.588.612l-.491.016a5.413 5.413 0 00.8 2.453.88.88 0 00.285.315c.363.208.794-.116 1.072-.428.3-.34.724-.736 1.156-.484a.61.61 0 01.236.262 2.546 2.546 0 01.105 1.08 2.393 2.393 0 002.3 2.222 2.128 2.128 0 00.763-.141 2.407 2.407 0 001.553-2.056 2.778 2.778 0 01.1-1.013.642.642 0 01.3-.331c.409-.194.7.223 1.03.46 1.44 1.046 1.985-2.271 1.985-2.271l-.473-.052a.633.633 0 01.048-1.261l.447-.015a5.328 5.328 0 00-1.266-3.062l-.344.323a.615.615 0 01-.873-.866l.322-.348a5.325 5.325 0 00-3.061-1.275zm-.542 5.5s1.689 3.04 1.689 3.982a1.689 1.689 0 11-3.378 0c0-.9 1.535-3.7 1.678-3.963z" data-name="Group 1889"/></svg>