<svg xmlns="http://www.w3.org/2000/svg" width="24" height="24"><path fill="currentColor" fill-rule="evenodd" stroke="currentColor" stroke-width=".5" d="M19.625 20.227a1.546 1.546 0 111.583-1.545 1.566 1.566 0 01-1.583 1.545m-5.542-1.545a1.584 1.584 0 11-1.583-1.546 1.566 1.566 0 011.583 1.545M10.917 6.318a1.584 1.584 0 013.167 0 1.584 1.584 0 01-3.167 0M6.958 18.682a1.566 1.566 0 01-1.583 1.545 1.546 1.546 0 110-3.091 1.566 1.566 0 011.583 1.545M20.021 16.4v-1.58a2.742 2.742 0 00-2.771-2.7H12.9V8.6a2.338 2.338 0 001.979-2.283 2.376 2.376 0 00-4.75 0A2.338 2.338 0 0012.1 8.6v3.514H7.75a2.742 2.742 0 00-2.771 2.7V16.4a2.313 2.313 0 00.4 4.6 2.313 2.313 0 00.4-4.6v-1.58a1.958 1.958 0 011.971-1.934h4.35V16.4a2.376 2.376 0 10.792 0v-3.514h4.358a1.958 1.958 0 011.979 1.932V16.4a2.376 2.376 0 10.792 0"/></svg>