<svg xmlns="http://www.w3.org/2000/svg" width="24" height="24"><path fill="none" d="M3 3h19v19H3z"/><path fill="currentColor" d="M20.915 6.314l-3.438-1.976a.6.6 0 00-.593 0l-3.441 1.976a.594.594 0 00-.3.516v.167l-.19-.109a.6.6 0 00-.593 0l-.191.111v-.167a.6.6 0 00-.3-.516L8.432 4.338a.6.6 0 00-.593 0L4.398 6.314a.592.592 0 00-.3.516v3.968a.6.6 0 00.3.516l3.441 1.977a.6.6 0 00.593 0l.191-.111v.169a.6.6 0 00.3.516l.122.069-.122.069a.6.6 0 00-.3.516v3.968a.6.6 0 00.3.516l3.441 1.977a.6.6 0 00.593 0l3.441-1.977a.6.6 0 00.3-.516v-3.966a.6.6 0 00-.3-.516l-.122-.069.122-.069a.6.6 0 00.3-.516v-.167l.19.109a.6.6 0 00.593 0l3.434-1.979a.6.6 0 00.3-.516V6.832a.594.594 0 00-.3-.518zm-12.78 5.589l-2.684-1.542V7.267l2.684-1.542 2.68 1.542v.508l-1.9 1.09a.6.6 0 00-.3.516v2.243l-.488.279zm2.68-3.132v1.592l-1.329.769v-1.6zm4.524 6.187v3.094l-2.68 1.542-2.685-1.541v-3.095l.424-.244 1.964 1.128a.6.6 0 00.593 0l1.96-1.128zm-4.077-.743l1.393-.8 1.393.8-1.393.8zm4.565-1.02l-.422.244-2.45-1.407a.6.6 0 00-.593 0l-2.453 1.407-.422-.244v-.51l2.385-1.371a.6.6 0 00.3-.516v-2.8l.49-.281.486.279V10.8a.6.6 0 00.3.516l2.388 1.371zm0-2.067l-1.333-.767V8.767l1.333.767zm4.036-.767l-2.683 1.542-.486-.278V9.381a.6.6 0 00-.3-.516l-1.9-1.092v-.506l2.684-1.542 2.684 1.542v3.094z"/></svg>