<svg xmlns="http://www.w3.org/2000/svg" width="24" height="24"><defs><style>.cls-2{fill:none;stroke:currentColor;stroke-linecap:round;stroke-linejoin:round;fill-rule:evenodd}</style></defs><g id="objlib" transform="translate(20546 22205)"><g id="components" transform="translate(-20544 -22203)"><g id="Networks---Single-Network---Workspace---Library-Selected"><g id="library"><path id="Stroke-4058" d="M20.727 2.579A2.079 2.079 0 0018.647.5H2.585A2.079 2.079 0 00.506 2.579v16.063a2.079 2.079 0 002.079 2.079h16.062a2.079 2.079 0 002.079-2.079z" class="cls-2" transform="translate(-.506 -.5)"/><path id="Stroke-4059" d="M7.135 5.824a1.31 1.31 0 11-1.309-1.31 1.31 1.31 0 011.309 1.31z" class="cls-2" transform="translate(-.99 -.985)"/><path id="Stroke-4060" d="M7.135 11.824a1.31 1.31 0 11-1.309-1.31 1.31 1.31 0 011.309 1.31z" class="cls-2" transform="translate(-.99 -1.71)"/><path id="Stroke-4061" d="M7.135 17.825a1.31 1.31 0 11-1.309-1.31 1.31 1.31 0 011.309 1.31z" class="cls-2" transform="translate(-.99 -2.435)"/><path id="Stroke-4062" d="M13.136 5.824a1.31 1.31 0 11-1.31-1.31 1.31 1.31 0 011.31 1.31z" class="cls-2" transform="translate(-1.716 -.985)"/><path id="Stroke-4063" d="M13.136 11.824a1.31 1.31 0 11-1.31-1.31 1.31 1.31 0 011.31 1.31z" class="cls-2" transform="translate(-1.716 -1.71)"/><path id="Stroke-4064" d="M13.136 17.825a1.31 1.31 0 11-1.31-1.31 1.31 1.31 0 011.31 1.31z" class="cls-2" transform="translate(-1.716 -2.435)"/><path id="Stroke-4065" d="M19.136 5.824a1.31 1.31 0 11-1.31-1.31 1.31 1.31 0 011.31 1.31z" class="cls-2" transform="translate(-2.441 -.985)"/><path id="Stroke-4066" d="M19.136 11.824a1.31 1.31 0 11-1.31-1.31 1.31 1.31 0 011.31 1.31z" class="cls-2" transform="translate(-2.441 -1.71)"/><path id="Stroke-4067" d="M19.136 17.825a1.31 1.31 0 11-1.31-1.31 1.31 1.31 0 011.31 1.31z" class="cls-2" transform="translate(-2.441 -2.435)"/></g></g></g></g></svg>