<svg xmlns="http://www.w3.org/2000/svg" width="24" height="24"><path fill="currentColor" d="M8.372 13.053a.673.673 0 010-1.345H18.46a.673.673 0 010 1.345zm0 4.035a.673.673 0 110-1.345H18.46a.673.673 0 110 1.345zm0-8.071a.673.673 0 110-1.345H18.46a.673.673 0 010 1.345zM4 8.345A1.345 1.345 0 115.345 9.69 1.346 1.346 0 014 8.345zm.841 0a.5.5 0 10.5-.5.505.505 0 00-.5.5zM4 12.381a1.345 1.345 0 111.345 1.345A1.346 1.346 0 014 12.381zm.841 0a.5.5 0 10.5-.5.505.505 0 00-.5.5zM4 16.416a1.345 1.345 0 111.345 1.345A1.346 1.346 0 014 16.416zm.841 0a.5.5 0 10.5-.5.505.505 0 00-.5.5z" data-name="Path 491"/></svg>