<svg xmlns="http://www.w3.org/2000/svg" width="24" height="24"><g data-name="Group 1898"><path fill="currentColor" stroke="currentColor" stroke-width=".5" d="M14.894 7a1.457 1.457 0 00-.4 2.861 4.677 4.677 0 01-4.632 4.632 1.458 1.458 0 00-1.108-1.036V9.892a1.461 1.461 0 10-.584 0v3.565a1.46 1.46 0 101.74 1.618A5.254 5.254 0 0015.081 9.9a1.457 1.457 0 00-.187-2.9zM7.59 8.461a.876.876 0 11.876.876.876.876 0 01-.876-.876zm.876 7.3a.876.876 0 11.876-.876.876.876 0 01-.875.879zm6.427-6.427a.876.876 0 11.876-.876.876.876 0 01-.875.879z" data-name="Path 28"/></g></svg>