<svg xmlns="http://www.w3.org/2000/svg" width="24" height="24"><g data-name="Group 1893"><g data-name="Group 639"><path fill="currentColor" d="M5.001 4v13.693l3.055 3.055 1.833-1.833 1.833 1.833 1.833-1.833 1.833 1.833 3.055-3.055V4zm1.222 1.222h11v11.965L15.39 19.02l-1.836-1.833-1.833 1.833-1.833-1.833-1.833 1.833-1.832-1.833zm1.222 2.444v1.222h6.109V7.666zm7.331 0v1.222h1.222V7.666zm-7.331 3.055v1.216h6.109v-1.222zm7.331 0v1.216h1.222v-1.222zm-7.331 3.055v1.222h6.109v-1.222zm7.331 0v1.222h1.222v-1.222z" data-name="Path 78"/></g></g></svg>