<svg xmlns="http://www.w3.org/2000/svg" width="24" height="24"><defs><clipPath id="clip-path"><path id="Path_74" d="M15.784 6.61a2.166 2.166 0 00-.617-1.624 2.707 2.707 0 00-1.808-.617.227.227 0 01-.19-.222.244.244 0 01.162-.249 3.157 3.157 0 012.169.742 2.631 2.631 0 01.763 1.992l.384-.384a.211.211 0 01.222.032.2.2 0 010 .238l-.736.763a.244.244 0 01-.146.07.26.26 0 01-.146-.076l-.731-.726a.222.222 0 010-.276.189.189 0 01.249-.027l.379.368z" class="cls-1" data-name="Path 74" transform="translate(-13.169 -3.895)"/></clipPath><style>.cls-1{fill:currentColor;stroke:currentColor}</style></defs><g id="replace" transform="translate(20626 22205)"><g id="Group_634" data-name="Group 634" transform="translate(-21269 -22832)"><g id="Component_80_1" data-name="Component 80 – 1" transform="translate(649 633)"><g id="Group_633" clip-path="url(#clip-path)" data-name="Group 633" transform="translate(6.377 1.644)"><path id="Rectangle_224" d="M0 0h5.295v4.997H0z" class="cls-1" data-name="Rectangle 224" transform="translate(-.79 -.772)"/></g><rect id="Rectangle_225" width="5" height="5" fill="none" stroke="currentColor" stroke-dasharray="0.8 1" stroke-linecap="round" stroke-miterlimit="10" stroke-width=".8" data-name="Rectangle 225" rx=".8" transform="translate(6.243 6.168)"/><path id="Path_75" fill="#fff" stroke="currentColor" stroke-width=".8" d="M.8 0h3.4a.8.8 0 01.8.8v3.4a.8.8 0 01-.8.8H.8a.8.8 0 01-.8-.8V.8A.8.8 0 01.8 0z" data-name="Path 75"/></g></g></g></svg>