<svg xmlns="http://www.w3.org/2000/svg" width="24" height="24"><defs><style>.cls-3{fill:currentColor}</style></defs><g id="route" transform="translate(5.5 5)"><g id="Joyn-2-Task-Type-Setup" transform="translate(-50 -173)"><g id="Group-35" transform="translate(44 168)"><g id="Group-23" transform="translate(5.5 5)"><path id="Path" d="M12.532 1.049A3.037 3.037 0 0010.118 0a2.372 2.372 0 00-1.667.612C7.244 1.72 7.26 4.052 7.26 6.515c0 1.982 0 4.226-.762 4.926a.854.854 0 01-.619.219 1.519 1.519 0 01-1.239-.51c-.746-.874-.762-2.667-.588-4.2a1.879 1.879 0 01-.286.015 2.786 2.786 0 01-1.159-.248c-.206 1.72-.206 3.964.873 5.247A3.028 3.028 0 005.862 13a2.36 2.36 0 001.652-.612C8.7 11.295 8.7 8.978 8.7 6.515c0-1.982 0-4.241.762-4.955a.894.894 0 01.635-.219 1.5 1.5 0 011.255.525c.746.874.762 2.652.572 4.183a1.879 1.879 0 01.286-.015 2.786 2.786 0 011.159.248c.016-.175.048-.35.064-.539.211-2.158-.091-3.743-.901-4.694z" class="cls-3"/><circle id="Oval" cx="1" cy="1" r="1" class="cls-3" transform="translate(11.5 7)"/><path id="Shape" d="M2.5 2a2 2 0 102 2 2 2 0 00-2-2zm0 3a1 1 0 111-1 1 1 0 01-1 1z" class="cls-3"/></g></g></g></g></svg>