<svg xmlns="http://www.w3.org/2000/svg" width="24" height="24"><path fill="none" d="M2 2h20v20H2z"/><path fill="currentColor" d="M20.893 10.569l-.075-.474-1.449-.485a7.659 7.659 0 00-.469-1.141l.68-1.369-.28-.389a9.239 9.239 0 00-2.023-2.019l-.389-.281-1.367.689a7.748 7.748 0 00-1.141-.473l-.48-1.449-.471-.073A8.946 8.946 0 0012 2.983a8.985 8.985 0 00-1.429.125l-.471.074-.486 1.451a8.023 8.023 0 00-1.141.467l-1.364-.682-.39.282A9.061 9.061 0 004.7 6.717l-.281.391.681 1.367a7.842 7.842 0 00-.471 1.139l-1.449.48-.075.474A9.088 9.088 0 002.984 12a9.007 9.007 0 00.123 1.429l.075.474 1.449.484a7.659 7.659 0 00.469 1.142l-.68 1.362.281.388a8.906 8.906 0 00.923 1.1 9.15 9.15 0 001.093.925l.389.281 1.369-.685a7.539 7.539 0 001.141.473l.484 1.447.475.075a9 9 0 001.425.122 9.046 9.046 0 001.429-.123l.475-.075.482-1.451a8.226 8.226 0 001.139-.471l1.366.684.389-.281a8.378 8.378 0 001.093-.925 9.1 9.1 0 00.923-1.1l.281-.391-.684-1.366a7.573 7.573 0 00.473-1.141l1.449-.484.075-.474A9 9 0 0021.014 12a8 8 0 00-.121-1.431zM19.6 11.984v.01a7.161 7.161 0 01-.051.828l-.7.233-.619.21-.192.623a5.835 5.835 0 01-.429 1.042l-.3.575.621 1.24a7.171 7.171 0 01-.55.621 6.541 6.541 0 01-.617.546l-1.246-.612-.573.3a6.636 6.636 0 01-1.056.437l-.619.194-.2.613-.233.7a6.724 6.724 0 01-.828.051 7.188 7.188 0 01-.828-.051l-.233-.7-.2-.619-.623-.192a5.94 5.94 0 01-1.048-.433l-.576-.3-.583.291-.658.328a7.172 7.172 0 01-.621-.55 7.025 7.025 0 01-.55-.621l.612-1.237-.3-.573a6.079 6.079 0 01-.43-1.048l-.192-.623-1.317-.437A6.723 6.723 0 014.41 12a7.161 7.161 0 01.051-.828l1.313-.437.192-.621a6.439 6.439 0 01.434-1.05l.3-.573-.289-.579-.328-.658a7.619 7.619 0 011.17-1.17l1.238.616.575-.3a6.4 6.4 0 011.052-.435l.619-.194.206-.615.233-.7A7.375 7.375 0 0112 4.4a7.128 7.128 0 01.826.051l.439 1.311.619.192a6.652 6.652 0 011.052.433l.573.3 1.236-.619a7.759 7.759 0 011.176 1.172l-.617 1.236.3.571a6.55 6.55 0 01.436 1.063l.194.619.615.206.7.233a5.744 5.744 0 01.051.816zM12 8.554A3.446 3.446 0 1015.45 12 3.45 3.45 0 0012 8.554zm1.429 4.875A2.019 2.019 0 1114.027 12a2.01 2.01 0 01-.594 1.429z"/></svg>