<svg xmlns="http://www.w3.org/2000/svg" width="24" height="24"><g fill="none"><path d="M7.97 5.536h7.167a1.433 1.433 0 011.433 1.433v6.981a1.433 1.433 0 01-1.433 1.433h-.065a10.67 10.67 0 00-2.465.095q-1.063.234-1.92 2.237-.768-2.031-1.442-2.237a4.3 4.3 0 00-1.243-.1 1.433 1.433 0 01-1.465-1.401V6.969A1.433 1.433 0 017.97 5.536z"/><path fill-rule="evenodd" stroke="currentColor" stroke-linecap="round" stroke-linejoin="round" d="M15.134 4.999a1.97 1.97 0 011.97 1.97v6.98a1.97 1.97 0 01-1.97 1.97 10.615 10.615 0 00-2.411.081c-.6.131-1.076.836-1.541 1.924a5.263 5.263 0 00-.484 1.695 7.617 7.617 0 00-.512-1.716c-.4-1.071-.721-1.8-1.1-1.914a3.8 3.8 0 00-1.073-.077A1.97 1.97 0 016 13.983V6.969a1.97 1.97 0 011.97-1.97h7.164z"/></g><text fill="currentColor" font-family="Gustanlp-Bold, Gustanlp" font-size="8" font-weight="700" transform="translate(9 12.905)"><tspan x="0" y="0">S</tspan></text></svg>