<svg xmlns="http://www.w3.org/2000/svg" width="24" height="24"><path fill="currentColor" fill-rule="evenodd" d="M13.267 14.173v4.368h.883v-4.368H19v4.368h1.272a.493.493 0 01.493.493v.766a.493.493 0 01-.493.493H4.493A.493.493 0 014 19.8v-.761a.493.493 0 01.493-.493h.831v-4.373zm0-6.552V13.3H5.324V7.621zm2.582-.874a1.364 1.364 0 011.389 1.338v.846h.779a.986.986 0 01.983.987V13.3h-4.851V9.918a.986.986 0 01.986-.986h1.176v-.847a.452.452 0 00-.409-.443H13.29l-.023-.892zM11.519 5a1.747 1.747 0 011.745 1.651v.1h-7.94A1.747 1.747 0 017.071 5z"/></svg>