<svg xmlns="http://www.w3.org/2000/svg" width="24" height="24"><defs><style>.cls-2{fill:currentColor}</style></defs><g id="TankStrapping" transform="translate(-335 -391)"><g id="Group_1895" data-name="Group 1895" transform="translate(344 396)"><g id="Group_1624" data-name="Group 1624"><path id="Path_434" d="M.32 0h5.128a.321.321 0 01.32.32v10.9a.32.32 0 01-.641 0V.641H.641V1.6A.32.32 0 110 1.6V.32A.321.321 0 01.32 0zm0 2.884A.32.32 0 110 3.2a.321.321 0 01.32-.316zm0 1.6a.321.321 0 01.32.32v9.934h4.487v-.32a.32.32 0 01.641 0v.641a.321.321 0 01-.32.32H.32a.321.321 0 01-.32-.32V4.807a.321.321 0 01.32-.321zM5.448 12.5a.32.32 0 11-.32.32.321.321 0 01.32-.32z" class="cls-2" data-name="Path 434"/></g><g id="Group_1625" data-name="Group 1625"><path id="Path_435" d="M.32 0H1.6a.321.321 0 01.32.32v14.741a.32.32 0 11-.641 0V.641H.641v12.5a.32.32 0 01-.641 0V.32A.321.321 0 01.32 0zm0 14.42a.32.32 0 11-.32.32.321.321 0 01.32-.32z" class="cls-2" data-name="Path 435"/></g><g id="Group_1626" data-name="Group 1626" transform="translate(3.525 13.779)"><path id="Path_436" d="M.32 0h1.6a.32.32 0 010 .641H.32A.32.32 0 01.32 0z" class="cls-2" data-name="Path 436"/></g><g id="Group_1627" data-name="Group 1627" transform="translate(4.166 12.498)"><path id="Path_437" d="M.32 0h.961a.32.32 0 110 .641H.32A.32.32 0 11.32 0z" class="cls-2" data-name="Path 437"/></g><g id="Group_1628" data-name="Group 1628" transform="translate(3.525 11.216)"><path id="Path_438" d="M.32 0h1.6a.32.32 0 010 .641H.32A.32.32 0 01.32 0z" class="cls-2" data-name="Path 438"/></g><g id="Group_1629" data-name="Group 1629" transform="translate(4.166 9.934)"><path id="Path_439" d="M.32 0h.961a.32.32 0 010 .641H.32A.32.32 0 01.32 0z" class="cls-2" data-name="Path 439"/></g><g id="Group_1630" data-name="Group 1630" transform="translate(3.525 8.652)"><path id="Path_440" d="M.32 0h1.6a.32.32 0 010 .641H.32A.32.32 0 01.32 0z" class="cls-2" data-name="Path 440"/></g><g id="Group_1631" data-name="Group 1631" transform="translate(4.166 7.37)"><path id="Path_441" d="M.32 0h.961a.32.32 0 010 .641H.32A.32.32 0 01.32 0z" class="cls-2" data-name="Path 441"/></g><g id="Group_1632" data-name="Group 1632" transform="translate(3.525 6.089)"><path id="Path_442" d="M.32 0h1.6a.32.32 0 110 .641H.32A.32.32 0 11.32 0z" class="cls-2" data-name="Path 442"/></g><g id="Group_1633" data-name="Group 1633" transform="translate(4.166 4.807)"><path id="Path_443" d="M.32 0h.961a.32.32 0 110 .641H.32A.32.32 0 11.32 0z" class="cls-2" data-name="Path 443"/></g><g id="Group_1634" data-name="Group 1634" transform="translate(3.525 3.525)"><path id="Path_444" d="M.32 0h1.6a.32.32 0 110 .641H.32A.32.32 0 11.32 0z" class="cls-2" data-name="Path 444"/></g><g id="Group_1635" data-name="Group 1635" transform="translate(4.166 2.243)"><path id="Path_445" d="M.32 0h.961a.32.32 0 110 .641H.32A.32.32 0 11.32 0z" class="cls-2" data-name="Path 445"/></g><g id="Group_1636" data-name="Group 1636" transform="translate(3.525 .961)"><path id="Path_446" d="M.32 0h1.6a.32.32 0 010 .641H.32A.32.32 0 01.32 0z" class="cls-2" data-name="Path 446"/></g></g></g></svg>