<svg xmlns="http://www.w3.org/2000/svg" width="24" height="24"><g data-name="Group 1892"><path fill="currentColor" d="M19.911 11.731l-2.939-2.916a.572.572 0 00-.408-.175h-1.9V5.409a.583.583 0 00-.583-.583h-10.5a.583.583 0 00-.583.583v10.5a.6.6 0 00.583.583h1.377a2.449 2.449 0 004.852 0h3.5a2.449 2.449 0 004.852 0h1.353a.6.6 0 00.583-.583v-3.816a.56.56 0 00-.187-.362zM4.164 5.992h9.331v9.238a1.306 1.306 0 01-.058.152H9.681a2.111 2.111 0 00-.3-.548 2.659 2.659 0 00-.455-.432l-.1-.07a2.333 2.333 0 00-.572-.28h-.1a2.543 2.543 0 00-1.365 0h-.1a2.519 2.519 0 00-.56.28l-.117.07a2.589 2.589 0 00-.443.432.653.653 0 000 .093 2.146 2.146 0 00-.28.478v.093H4.164zm3.208 11.477a1.271 1.271 0 01-1.271-1.271 1.166 1.166 0 010-.21 1.295 1.295 0 012.543 0 1.166 1.166 0 010 .21 1.3 1.3 0 01-1.272 1.272zm8.351 0a1.271 1.271 0 01-1.271-1.271.945.945 0 010-.2 1.166 1.166 0 01.14-.42 1.295 1.295 0 012.4.42.921.921 0 010 .2 1.3 1.3 0 01-1.264 1.272zm3.205-2.145h-.9a2.111 2.111 0 00-.3-.548 2.659 2.659 0 00-.455-.432l-.1-.07a2.333 2.333 0 00-.572-.28h-.1a2.648 2.648 0 00-.688-.093 2.111 2.111 0 00-.607.082 1.341 1.341 0 00-.2.07l-.257.082V9.807h1.579l2.6 2.539z" data-name="Path 77"/></g></svg>