<svg xmlns="http://www.w3.org/2000/svg" width="24" height="24"><path fill="currentColor" stroke="currentColor" stroke-width=".3" d="M12 4.501a5.727 5.727 0 00-5.655 4.654 4.738 4.738 0 00.9 9.392h10.128a4.12 4.12 0 00.374-8.224A5.721 5.721 0 0012.002 4.5zm0 1.24a4.5 4.5 0 013.208 1.323 4.547 4.547 0 011.3 3.763.62.62 0 00.613.7h.245a2.892 2.892 0 110 5.784H7.251a3.513 3.513 0 01-.323-7.01.62.62 0 00.555-.542A4.536 4.536 0 0112 5.739zm0 3.718a.555.555 0 00-.42.161l-2.272 2.066a.625.625 0 00-.039.878.648.648 0 00.878.039l1.233-1.123v3.97a.62.62 0 101.239 0v-3.97l1.233 1.123a.662.662 0 00.878-.039.624.624 0 00-.039-.878L12.419 9.62A.523.523 0 0012 9.459z" data-name="Path 490"/></svg>