<svg xmlns="http://www.w3.org/2000/svg" width="24" height="24"><defs><style>.cls-2{fill:currentColor;stroke:currentColor;stroke-width:.2px}</style></defs><g id="view" transform="translate(20391 22318)"><g id="view-2" data-name="view" transform="translate(-20385 -22311)"><g id="Joyn-2-Ghantt-Chart-View-Copy-9"><g id="Group-63"><g id="Group-71"><g id="Group-70"><g id="eye"><g id="Group-68"><path id="Shape" d="M5.818 0C1.769 0 .111 4.747.043 4.95a.835.835 0 000 .527c.069.2 1.726 4.95 5.776 4.95s5.707-4.747 5.776-4.95a.835.835 0 000-.527C11.525 4.747 9.867 0 5.818 0zm0 9.141c-2.948 0-4.409-3-4.79-3.928.381-.928 1.843-3.929 4.79-3.929s4.408 3 4.79 3.929c-.381.928-1.843 3.928-4.79 3.928z" class="cls-2"/><path id="Shape-2" d="M5.818 2.036a1.978 1.978 0 101.94 1.978 1.961 1.961 0 00-1.94-1.978zm0 2.964a.989.989 0 11.97-.989.981.981 0 01-.97.989z" class="cls-2" data-name="Shape" transform="translate(0 1.199)"/></g></g></g></g></g></g></g></g></svg>