<svg xmlns="http://www.w3.org/2000/svg" width="24" height="24"><g data-name="Group 1888"><path fill="currentColor" fill-rule="evenodd" d="M19 6.9a1.456 1.456 0 001-1.4 1.5 1.5 0 00-3-.1l-3.95 1.05a1.525 1.525 0 00-2.5.65l-3.5.95A2.8 2.8 0 017.3 6.8a.463.463 0 00-.2-.6L5.35 5.15a.494.494 0 00-.7.2A5.667 5.667 0 004.2 9.4a6.052 6.052 0 002.25 3.4.509.509 0 00.75-.15l1.05-1.7a.474.474 0 00-.1-.65 2.671 2.671 0 01-.85-1.25l3.4-.9L7.65 18.5H4V20h16v-1.5h-1zm-4.5 10.9L12.7 16l1-1zm-1.55-5.3h-1.9L12 9.2zm.3 1l.1.45L12 15.3l-1.4-1.4.1-.4zM10.3 15l1 1-1.8 1.8zm1.7 1.7l1.8 1.8h-3.6zm1.35-8.5a1.616 1.616 0 00.15-.8l3.8-1a1.8 1.8 0 00.7.55V18.5h-1.65z" data-name="well"/></g></svg>